<svg xmlns="http://www.w3.org/2000/svg" viewBox="0 0 100 100">
    <rect width="100" height="100" rx="12" fill="#0f4c81"></rect>
    <path d="m20.228 25c-1.4452 0-2.678 0.34417-3.6981 1.0359-1.0202 0.64851-1.53 1.9024-1.53 3.7614 0 1.7726 0.5098 3.0063 1.53 3.6981 1.0202 0.69174 2.2529 1.0359 3.6981 1.0359 1.4027 0 2.6157-0.34417 3.6359-1.0359 1.0627-0.69175 1.5922-1.9255 1.5922-3.6981 0-1.8591-0.52956-3.1129-1.5922-3.7614-1.0202-0.69175-2.2332-1.0359-3.6359-1.0359zm24.766 2.3975c-2.7204 0-5.0585 0.32634-7.0138 0.97485-1.9128 0.60528-3.6114 1.4032-5.0991 2.3975-1.4452 0.99438-2.8274 2.0761-4.1451 3.2435l5.2281 6.2901c1.8278-1.5132 3.5703-2.6799 5.2281-3.5013s3.3586-1.2327 5.1013-1.2327c1.7003 0 3.0385 0.4537 4.0161 1.3616 1.0202 0.90792 1.53 2.2914 1.53 4.1505-2e-6 1.5132-0.31862 2.9414-0.95622 4.2816-0.6376 1.297-1.6572 2.7654-3.0599 4.4083-1.4027 1.5997-3.2507 3.6112-5.5461 6.0323l-11.415 11.737v6.8104h31.818v-8.2353h-19.829v-0.45463l5.8641-5.5777c2.6779-2.5076 4.9522-4.7985 6.8225-6.8737 1.9128-2.0752 3.3587-4.1717 4.3364-6.2901 1.0202-2.1185 1.53-4.4541 1.53-7.0049 0-2.3779-0.5955-4.4967-1.7857-6.3557-1.1477-1.9023-2.8045-3.393-4.9724-4.4739-2.1253-1.1241-4.6765-1.6873-7.652-1.6873zm23.81 4.0215-2.7419 7.4573-5.2281 3.2435v4.0849h4.5276v17.056c0 3.0264 0.46806 5.4044 1.4032 7.1338 0.97765 1.6861 2.2741 2.8752 3.8894 3.5669 1.6578 0.69174 3.5278 1.0382 5.6106 1.0382 1.7853 0 3.4224-0.17435 4.9101-0.52022 1.5302-0.30264 2.8047-0.66917 3.8249-1.1015v-7.1994c-0.97765 0.30264-1.9555 0.5619-2.9332 0.77807-0.97765 0.21617-1.9972 0.3257-3.0599 0.3257-1.2327 0-2.2325-0.32408-2.9976-0.97259-0.76512-0.69175-1.1475-1.7087-1.1475-3.0489v-17.056h9.7557v-7.2627h-9.7557v-7.5228zm-53.422 7.5228v35.409h9.6289v-35.409z" fill="#fff"></path>
</svg>
