<svg xmlns="http://www.w3.org/2000/svg" style="display: none;">
    <!-- PLUS ICON -->
    <symbol id="icon-plus" viewBox="0 0 24 24" fill="none" stroke="currentColor" stroke-width="2" stroke-linecap="round" stroke-linejoin="round">
        <line x1="12" y1="5" x2="12" y2="19"></line>
        <line x1="5" y1="12" x2="19" y2="12"></line>
    </symbol>
    <!-- MINUS ICON -->
    <symbol id="icon-minus" viewBox="0 0 24 24" fill="none" stroke="currentColor" stroke-width="2" stroke-linecap="round" stroke-linejoin="round">
        <line x1="5" y1="12" x2="19" y2="12"></line>
    </symbol>
    <!-- RESET ICON (Expand / Focus) -->
    <symbol id="icon-reset" viewBox="0 0 24 24" fill="none" stroke="currentColor" stroke-width="2" stroke-linecap="round" stroke-linejoin="round">
        <polyline points="15 3 21 3 21 9"></polyline>
        <polyline points="9 21 3 21 3 15"></polyline>
        <line x1="21" y1="3" x2="14" y2="10"></line>
        <line x1="3" y1="21" x2="10" y2="14"></line>
    </symbol>
    <!-- UPLOAD ICON -->
    <symbol id="icon-upload" viewBox="0 0 24 24" fill="none" stroke="currentColor" stroke-width="2" stroke-linecap="round" stroke-linejoin="round">
        <path d="M7 16a4 4 0 01-.88-7.903A5 5 0 1115.9 6L16 6a5 5 0 011 9.9M15 13l-3-3m0 0l-3 3m3-3v12"></path>
    </svg>
</svg>
