<svg xmlns="http://www.w3.org/2000/svg" viewBox="0 0 89.105 26.025">
    <path d="m52.43 0.96094c-1.1787 1e-7 -2.2439 0.21706-3.1973 0.65039-0.936 0.416-1.7681 0.92654-2.4961 1.5332l1.2227 1.5352c0.71067-0.55467 1.4041-0.98878 2.0801-1.3008 0.69333-0.312 1.4893-0.4668 2.3906-0.4668 0.97066 0 1.7605 0.26735 2.3672 0.80469 0.60667 0.52 0.91016 1.2918 0.91016 2.3145 0 0.832-0.16481 1.6038-0.49414 2.3145-0.32933 0.69333-0.8157 1.4029-1.457 2.1309-0.64133 0.728-1.4292 1.5601-2.3652 2.4961l-4.8633 4.9141v1.8984h12.273v-2.0801h-9.3867v-0.10352l3.875-3.8223c0.95333-0.936 1.7835-1.8123 2.4941-2.627 0.71067-0.832 1.2654-1.6722 1.6641-2.5215 0.39867-0.84933 0.59961-1.7598 0.59961-2.7305 0-1.5427-0.50248-2.7466-1.5078-3.6133-1.0053-0.884-2.376-1.3262-4.1094-1.3262zm10.051 1.6895-0.91016 2.9648-2.002 0.91016v1.0918h1.9766v8.1113c0 1.1267 0.18898 2.003 0.57031 2.627 0.38133 0.624 0.87576 1.0662 1.4824 1.3262 0.624 0.24267 1.3013 0.36328 2.0293 0.36328 0.416 0 0.84816-0.04224 1.2988-0.12891 0.45067-0.06933 0.79835-0.16578 1.041-0.28711v-1.7422c-0.22533 0.06933-0.52077 0.13965-0.88477 0.20898-0.364 0.052-0.71974 0.07813-1.0664 0.07813-0.64133 0-1.1699-0.20094-1.5859-0.59961-0.39867-0.416-0.59766-1.0472-0.59766-1.8965v-8.0605h4.0293v-1.7676h-4.0293v-3.1992zm21.139 0-0.9082 2.9648-2.002 0.91016v1.0918h1.9746v8.1113c0 1.1267 0.19093 2.003 0.57227 2.627 0.38133 0.624 0.87576 1.0662 1.4824 1.3262 0.624 0.24267 1.2993 0.36328 2.0273 0.36328 0.416 0 0.85012-0.04224 1.3008-0.12891 0.45067-0.06933 0.7964-0.16578 1.0391-0.28711v-1.7422c-0.22533 0.06933-0.51881 0.13965-0.88281 0.20898-0.364 0.052-0.71974 0.07813-1.0664 0.07813-0.64133 0-1.1699-0.20094-1.5859-0.59961-0.39867-0.416-0.59766-1.0472-0.59766-1.8965v-8.0605h4.0293v-1.7676h-4.0293v-3.1992zm-15.379 3.1992 4.8105 6.8125-5.0449 7.123h2.5742l3.8477-5.5645 3.7969 5.5645h2.5996l-5.0703-7.123 4.8105-6.8125h-2.5742l-3.5625 5.252-3.5879-5.252z" fill="#cbd5e1"></path>
    <path d="m2.1328 0c-0.58933-1e-7 -1.0918 0.13868-1.5078 0.41602-0.416 0.26-0.625 0.76248-0.625 1.5078 0 0.71067 0.209 1.2031 0.625 1.4805 0.416 0.27733 0.91848 0.41602 1.5078 0.41602 0.572 1e-7 1.0664-0.13868 1.4824-0.41602 0.43333-0.27733 0.64844-0.7698 0.64844-1.4805 0-0.74533-0.2151-1.2478-0.64844-1.5078-0.416-0.27733-0.91042-0.41602-1.4824-0.41602zm12.729 5.3301c-0.97066 0-1.8208 0.18898-2.5488 0.57031-0.728 0.364-1.2908 0.86648-1.6895 1.5078h-0.13086l-0.57227-1.8184h-3.0156v14.195h3.9258v-6.6562c0-1.508 0.19093-2.6597 0.57227-3.457 0.39867-0.81467 1.1363-1.2227 2.2109-1.2227 0.728 0 1.2647 0.25124 1.6113 0.75391 0.34667 0.48533 0.51953 1.2571 0.51953 2.3145v8.2676h3.9258v-7.0977c0-1.352 0.19899-2.3931 0.59766-3.1211 0.416-0.74533 1.1355-1.1172 2.1582-1.1172 0.728 1e-6 1.2747 0.24318 1.6387 0.72852 0.364 0.468 0.54688 1.2478 0.54688 2.3398v8.2676h3.8984v-9.2559c0-1.82-0.41605-3.1365-1.248-3.9512-0.832-0.832-2.0621-1.248-3.6914-1.248-0.90133 0-1.7254 0.18092-2.4707 0.54492-0.74533 0.34667-1.3504 0.87527-1.8184 1.5859h-0.13086c-0.39867-0.69333-0.9534-1.2219-1.6641-1.5859-0.69333-0.364-1.5677-0.54492-2.625-0.54492zm21.125 0c-1.6293 0-2.9378 0.64116-3.9258 1.9238s-1.4824 3.1017-1.4824 5.459 0.48637 4.1683 1.457 5.4336c0.97067 1.2653 2.2791 1.8984 3.9258 1.8984 0.97066 0 1.7766-0.19093 2.418-0.57227 0.65867-0.38133 1.1873-0.88381 1.5859-1.5078h0.12891c-0.03467 0.26-0.06885 0.56349-0.10352 0.91016-0.01733 0.34667-0.02539 0.62403-0.02539 0.83203v0.39062c0 0.884-0.28738 1.5774-0.85938 2.0801-0.572 0.50267-1.3941 0.75391-2.4688 0.75391-1.0747 0-2.0193-0.09644-2.834-0.28711-0.81466-0.19067-1.6206-0.45802-2.418-0.80469v3.3281c0.76267 0.312 1.5767 0.5271 2.4434 0.64844 0.86667 0.13867 1.8455 0.20898 2.9375 0.20898 2.4267 0 4.2215-0.52055 5.3828-1.5605 1.1613-1.04 1.7422-2.5655 1.7422-4.5762v-14.299h-3.3281l-0.33789 1.793h-0.13086c-0.43333-0.624-0.98806-1.1184-1.6641-1.4824-0.65867-0.38133-1.4727-0.57031-2.4434-0.57031zm-35.83 0.25977v14.195h3.9258v-14.195zm37.104 2.834c1.092 0 1.8557 0.35379 2.2891 1.0645 0.45067 0.69333 0.67578 1.7525 0.67578 3.1738v0.57031c0 1.2827-0.22512 2.2273-0.67578 2.834-0.43333 0.60667-1.1709 0.91016-2.2109 0.91016-1.8373 0-2.7559-1.4029-2.7559-4.2109 0-1.404 0.22512-2.4793 0.67578-3.2246 0.468-0.74533 1.1353-1.1172 2.002-1.1172z" fill="#3b82f6"></path>
</svg>
